<svg width="22" height="23" viewBox="0 0 22 23" fill="none" xmlns="http://www.w3.org/2000/svg">
<path d="M2.9745 20.9847H19.0255C19.8314 20.9847 20.4847 20.3314 20.4847 19.5255V3.4745C20.4847 2.66862 19.8314 2.01532 19.0255 2.01532H2.9745C2.16862 2.01532 1.51532 2.66862 1.51532 3.4745V19.5255C1.51532 20.3314 2.16862 20.9847 2.9745 20.9847Z" stroke="#637083" stroke-width="1.79452" stroke-linecap="round" stroke-linejoin="round"/>
<path d="M14.2685 10.7704C15.6789 10.7704 16.8221 9.62714 16.8221 8.21684C16.8221 6.80654 15.6789 5.66327 14.2685 5.66327C12.8582 5.66327 11.715 6.80654 11.715 8.21684C11.715 9.62714 12.8582 10.7704 14.2685 10.7704Z" stroke="#637083" stroke-width="1.79452" stroke-linecap="round" stroke-linejoin="round"/>
<path d="M14.4874 20.9847C14.0176 18.4822 12.6739 16.228 10.6961 14.6244C8.71828 13.0207 6.23506 12.172 3.68948 12.2296C2.96103 12.2276 2.23406 12.2949 1.51837 12.4305" stroke="#637083" stroke-width="1.79452" stroke-linecap="round" stroke-linejoin="round"/>
<path d="M20.4701 15.7462C19.2949 15.3493 18.0626 15.1472 16.8221 15.1479C15.252 15.1445 13.6977 15.4623 12.2549 16.0818" stroke="#637083" stroke-width="1.79452" stroke-linecap="round" stroke-linejoin="round"/>
</svg>
